<?xml version="1.0" standalone="no"?>
<!DOCTYPE svg PUBLIC "-//W3C//DTD SVG 20010904//EN"
 "http://www.w3.org/TR/2001/REC-SVG-20010904/DTD/svg10.dtd">
<svg version="1.0" xmlns="http://www.w3.org/2000/svg"
 width="1080.000000pt" height="1080.000000pt" viewBox="0 0 1080.000000 1080.000000"
 preserveAspectRatio="xMidYMid meet">
<metadata>
Created by potrace 1.14, written by Peter Selinger 2001-2017
</metadata>
<g transform="translate(0.000000,1080.000000) scale(0.100000,-0.100000)"
fill="#000000" stroke="none">
<path d="M0 7865 c0 -2602 2 -2935 15 -2935 8 0 15 -7 15 -15 0 -8 -7 -15 -15
-15 -13 0 -15 -279 -15 -2450 l0 -2450 270 0 c236 0 269 2 264 15 -5 11 -2 13
10 9 9 -3 16 -10 16 -15 0 -5 2122 -9 5120 -9 l5120 0 0 5400 0 5400 -2890 0
c-1799 0 -2890 -4 -2890 -9 0 -6 5 -13 10 -16 17 -11 -18 -64 -42 -65 -12 0
-9 28 3 32 6 2 8 14 4 31 l-7 27 -2494 0 -2494 0 0 -2935z m5094 2907 c2 -4 1
-14 -4 -22 -7 -11 -12 -12 -21 -3 -6 6 -8 16 -5 22 8 13 23 14 30 3z m-3954
-113 c0 -24 -23 -21 -28 4 -2 10 3 17 12 17 10 0 16 -9 16 -21z m384 -18 c3
-5 -1 -11 -9 -15 -9 -3 -15 0 -15 9 0 16 16 20 24 6z m3456 -12 c0 -5 -4 -9
-10 -9 -5 0 -10 7 -10 16 0 8 5 12 10 9 6 -3 10 -10 10 -16z m-3480 -28 c0 -6
-4 -13 -10 -16 -5 -3 -14 -24 -20 -47 -8 -27 -15 -37 -22 -30 -12 12 25 102
41 102 6 0 11 -4 11 -9z m7620 -10 c0 -14 -18 -23 -30 -16 -6 4 -8 11 -5 16 8
12 35 12 35 0z m-74 -22 c11 -18 -13 -34 -31 -19 -8 7 -15 16 -15 21 0 13 38
11 46 -2z m-92 -15 c4 -10 1 -14 -6 -12 -15 5 -23 28 -10 28 5 0 13 -7 16 -16z
m-5704 -14 c0 -5 -5 -10 -11 -10 -5 0 -7 5 -4 10 3 6 8 10 11 10 2 0 4 -4 4
-10z m5646 -1 c9 -16 -37 -50 -58 -43 -10 3 -28 -2 -40 -10 -12 -9 -32 -16
-43 -16 -11 0 -31 -7 -43 -16 -23 -16 -52 -13 -52 6 0 5 10 10 23 10 12 0 27
8 34 19 8 13 29 21 68 26 30 3 61 13 68 20 15 17 33 19 43 4z m-7791 -20 c0
-7 -8 -15 -17 -17 -18 -3 -25 18 -11 32 10 10 28 1 28 -15z m2102 -46 c-3 -3
-11 -2 -17 2 -9 6 -9 10 1 16 14 8 27 -7 16 -18z m23 -31 c0 -13 -12 -22 -22
-16 -10 6 -1 24 13 24 5 0 9 -4 9 -8z m5403 -7 c7 -17 -11 -31 -35 -27 -9 2
-30 -4 -46 -12 -42 -22 -48 -7 -10 25 36 31 82 38 91 14z m723 -187 c7 -24 0
-32 -21 -25 -8 4 -15 18 -15 32 0 18 -5 25 -20 25 -13 0 -20 7 -20 21 0 19 2
19 35 -6 19 -15 37 -36 41 -47z m62 45 c-4 -22 -22 -20 -26 1 -2 10 3 16 13
16 10 0 15 -7 13 -17z m-118 -67 c0 -18 -16 -29 -30 -21 -13 8 -1 35 16 35 8
0 14 -6 14 -14z m-7348 -46 c-12 -110 -16 -131 -28 -140 -19 -16 -38 23 -24
49 7 14 7 22 -2 27 -6 4 -14 2 -16 -4 -5 -17 -22 -15 -22 3 0 8 5 15 10 15 6
0 10 8 10 17 0 23 41 64 60 61 9 -2 14 -13 12 -28z m7270 -8 c-16 -42 -74 -67
-86 -36 -6 17 41 67 55 58 5 -3 9 0 9 7 0 9 3 9 14 -1 9 -6 12 -19 8 -28z
m-1125 -118 c-3 -4 -14 -3 -24 0 -15 6 -15 8 -3 16 16 10 39 -4 27 -16z m1061
14 c-2 -6 -10 -14 -16 -16 -7 -2 -10 2 -6 12 7 18 28 22 22 4z m-3838 -53 c0
-8 -4 -15 -10 -15 -5 0 -10 7 -10 15 0 8 5 15 10 15 6 0 10 -7 10 -15z m-490
-25 c0 -5 -2 -10 -4 -10 -3 0 -8 5 -11 10 -3 6 -1 10 4 10 6 0 11 -4 11 -10z
m3945 -10 c3 -5 -3 -10 -14 -10 -11 0 -23 5 -26 10 -3 6 3 10 14 10 11 0 23
-4 26 -10z m-6877 -53 c6 -30 -7 -67 -24 -67 -20 0 -29 27 -14 45 7 8 9 22 6
31 -4 11 -1 14 11 12 10 -2 19 -11 21 -21z m6858 -18 c3 -5 15 -9 28 -9 36 0
37 -11 5 -41 -29 -27 -48 -34 -40 -14 14 40 13 45 -13 45 -15 0 -29 -7 -31
-15 -3 -8 -7 -22 -10 -31 -10 -31 -15 -8 -9 37 6 43 8 45 35 41 16 -2 32 -8
35 -13z m-91 -19 c9 -14 -13 -50 -31 -50 -9 0 -13 5 -10 13 3 6 9 20 12 30 7
19 20 22 29 7z m-108 -22 c-3 -8 -6 -5 -6 6 -1 11 2 17 5 13 3 -3 4 -12 1 -19z
m-6697 -43 c0 -8 -7 -15 -15 -15 -16 0 -20 12 -8 23 11 12 23 8 23 -8z m6680
-15 c0 -5 -4 -10 -10 -10 -5 0 -10 5 -10 10 0 6 5 10 10 10 6 0 10 -4 10 -10z
m42 -5 c0 -5 -5 -11 -11 -13 -6 -2 -11 4 -11 13 0 9 5 15 11 13 6 -2 11 -8 11
-13z m-492 -2 c-1 -19 -19 -30 -69 -42 -45 -11 -55 -11 -62 0 -15 24 -4 34 47
40 78 9 84 9 84 2z m-6200 -24 c9 -15 8 -24 -1 -35 -27 -33 -59 -7 -38 32 15
29 25 30 39 3z m6035 11 c11 -18 -15 -50 -40 -50 -20 0 -25 5 -25 23 0 13 3
27 7 30 10 10 51 8 58 -3z m525 -76 c0 -9 -7 -14 -17 -12 -25 5 -28 28 -4 28
12 0 21 -6 21 -16z m130 7 c0 -10 -24 -21 -47 -21 -13 0 -13 3 -3 15 13 16 50
21 50 6z m-6730 -106 c-7 -9 -15 -13 -17 -11 -7 7 7 26 19 26 6 0 6 -6 -2 -15z
m2930 -80 c0 -8 -4 -15 -10 -15 -5 0 -10 7 -10 15 0 8 5 15 10 15 6 0 10 -7
10 -15z m-2955 -5 c3 -5 1 -10 -4 -10 -6 0 -11 5 -11 10 0 6 2 10 4 10 3 0 8
-4 11 -10z m15 -45 c0 -8 -4 -15 -10 -15 -5 0 -10 7 -10 15 0 8 5 15 10 15 6
0 10 -7 10 -15z m620 -125 c0 -5 -4 -10 -10 -10 -5 0 -10 5 -10 10 0 6 5 10
10 10 6 0 10 -4 10 -10z m-666 -65 c-4 -8 -8 -15 -10 -15 -2 0 -4 7 -4 15 0 8
4 15 10 15 5 0 7 -7 4 -15z m2411 -74 c5 -25 4 -32 -6 -29 -7 2 -14 22 -16 43
-2 44 12 36 22 -14z m6335 -25 c0 -3 -4 -8 -10 -11 -5 -3 -10 -1 -10 4 0 6 5
11 10 11 6 0 10 -2 10 -4z m-8770 -161 c0 -8 -4 -15 -10 -15 -5 0 -10 7 -10
15 0 8 5 15 10 15 6 0 10 -7 10 -15z m2404 -14 c-22 -21 -27 -21 -18 3 3 9 13
16 22 16 13 0 12 -3 -4 -19z m126 -27 c0 -8 -4 -12 -10 -9 -5 3 -10 10 -10 16
0 5 5 9 10 9 6 0 10 -7 10 -16z m4070 -4 c0 -14 -30 -40 -46 -40 -20 0 -18 12
7 38 19 21 39 22 39 2z m-4300 -16 c0 -14 -12 -19 -23 -8 -9 9 4 35 14 28 5
-3 9 -12 9 -20z m-3890 -68 c0 -16 -18 -31 -27 -22 -8 8 5 36 17 36 5 0 10 -6
10 -14z m3870 -11 c0 -16 -27 -32 -37 -21 -7 7 16 36 28 36 5 0 9 -7 9 -15z
m252 -27 c-5 -21 -6 -21 -12 -2 -8 21 -3 37 10 29 4 -3 6 -15 2 -27z m5978
-38 c0 -5 -7 -10 -16 -10 -8 0 -12 5 -9 10 3 6 10 10 16 10 5 0 9 -4 9 -10z
m-10150 -131 c0 -5 -7 -9 -15 -9 -15 0 -20 12 -9 23 8 8 24 -1 24 -14z m4008
-53 c-4 -29 -23 -17 -23 16 -1 21 2 25 13 16 7 -6 12 -21 10 -32z m6652 10 c0
-3 -4 -8 -10 -11 -5 -3 -10 -1 -10 4 0 6 5 11 10 11 6 0 10 -2 10 -4z m-8150
-36 c0 -34 -33 -55 -43 -27 -7 19 12 47 28 41 8 -4 15 -10 15 -14z m-1400 -90
c0 -5 -2 -10 -4 -10 -3 0 -8 5 -11 10 -3 6 -1 10 4 10 6 0 11 -4 11 -10z
m2885 -30 c0 -7 -6 -15 -12 -17 -8 -3 -13 4 -13 17 0 13 5 20 13 18 6 -3 12
-11 12 -18z m-1521 -59 c3 -5 -1 -14 -9 -21 -13 -10 -15 -9 -15 9 0 21 14 28
24 12z m478 -36 c0 -5 -5 -11 -11 -13 -6 -2 -11 4 -11 13 0 9 5 15 11 13 6 -2
11 -8 11 -13z m-42 -239 c0 -13 -7 -26 -15 -30 -8 -3 -15 -12 -15 -21 0 -8 -4
-15 -8 -15 -6 0 -9 73 -3 88 1 1 10 2 21 2 14 0 20 -7 20 -24z m-504 -14 c-18
-16 -18 -16 -6 6 6 13 14 21 18 18 3 -4 -2 -14 -12 -24z m7694 8 c0 -5 -7 -10
-15 -10 -8 0 -15 5 -15 10 0 6 7 10 15 10 8 0 15 -4 15 -10z m-8082 -16 c30
-6 31 -8 15 -19 -10 -7 -32 -16 -50 -19 -25 -6 -34 -3 -47 16 -9 12 -16 26
-16 29 0 7 37 5 98 -7z m2122 -10 c0 -8 -5 -12 -10 -9 -6 4 -8 11 -5 16 9 14
15 11 15 -7z m120 -39 c0 -8 -4 -15 -10 -15 -5 0 -10 -14 -10 -31 0 -25 3 -29
18 -25 16 5 18 2 14 -26 -4 -25 -7 -29 -16 -17 -6 8 -26 15 -44 17 -29 2 -31
0 -21 -16 7 -12 8 -28 1 -52 -7 -26 -10 -29 -11 -12 -1 12 -5 22 -11 22 -5 0
-10 8 -10 18 0 10 -5 23 -11 29 -16 16 -3 76 20 97 16 15 19 15 31 1 17 -20
27 -19 33 5 6 23 27 27 27 5z m5790 -124 c0 -6 -4 -13 -10 -16 -5 -3 -10 1
-10 9 0 9 5 16 10 16 6 0 10 -4 10 -9z m-6360 -11 c0 -5 -2 -10 -4 -10 -3 0
-8 5 -11 10 -3 6 -1 10 4 10 6 0 11 -4 11 -10z m6670 -26 c0 -9 -7 -14 -17
-12 -25 5 -28 28 -4 28 12 0 21 -6 21 -16z m-10342 -71 c-2 -9 -9 -18 -15 -21
-9 -2 -13 9 -13 39 0 42 0 43 16 21 8 -12 14 -30 12 -39z m3083 -89 c11 -14
10 -15 -11 -12 -13 1 -25 9 -28 16 -5 17 23 15 39 -4z m409 -13 c0 -11 3 -26
6 -35 8 -21 -9 -20 -37 2 -26 22 -20 52 11 52 13 0 20 -7 20 -19z m6350 4 c16
-20 10 -26 -18 -18 -12 3 -22 12 -22 19 0 19 24 18 40 -1z m-9840 -60 c0 -8
-4 -15 -10 -15 -5 0 -10 7 -10 15 0 8 5 15 10 15 6 0 10 -7 10 -15z m9740 -15
c0 -5 -4 -10 -10 -10 -5 0 -10 5 -10 10 0 6 5 10 10 10 6 0 10 -4 10 -10z
m320 -40 c0 -5 -2 -10 -4 -10 -3 0 -8 5 -11 10 -3 6 -1 10 4 10 6 0 11 -4 11
-10z m123 -65 c-3 -8 -9 -15 -14 -15 -10 0 -12 24 -3 33 11 11 24 -3 17 -18z
m-307 -102 c20 -27 17 -36 -10 -29 -14 3 -28 2 -31 -4 -3 -5 -14 -10 -23 -10
-14 1 -13 4 6 19 12 11 22 24 22 30 0 17 21 13 36 -6z m-176 -3 c0 -5 -4 -10
-10 -10 -5 0 -10 5 -10 10 0 6 5 10 10 10 6 0 10 -4 10 -10z m10 -139 c0 -5
-7 -14 -15 -21 -16 -14 -18 -10 -9 14 6 17 24 22 24 7z m-206 -46 c-4 -8 -15
-15 -26 -15 -17 0 -18 3 -8 15 7 8 19 15 26 15 8 0 11 -6 8 -15z m157 -2 c13
-17 13 -17 -6 -3 -11 8 -22 16 -24 17 -2 2 0 3 6 3 6 0 17 -8 24 -17z m338
-52 c12 -8 13 -12 1 -26 -10 -13 -15 -13 -21 -3 -20 30 -8 46 20 29z m-929
-207 c0 -8 -4 -14 -10 -14 -5 0 -10 9 -10 21 0 11 5 17 10 14 6 -3 10 -13 10
-21z m120 -28 c0 -16 -18 -31 -27 -22 -8 8 5 36 17 36 5 0 10 -6 10 -14z
m-4395 -6 c3 -5 1 -10 -4 -10 -6 0 -11 5 -11 10 0 6 2 10 4 10 3 0 8 -4 11
-10z m4555 -19 c0 -6 -4 -13 -10 -16 -5 -3 -10 1 -10 9 0 9 5 16 10 16 6 0 10
-4 10 -9z m-4700 -15 c0 -2 -7 -6 -15 -10 -8 -3 -15 -1 -15 4 0 6 7 10 15 10
8 0 15 -2 15 -4z m260 -46 c0 -5 -5 -10 -11 -10 -5 0 -7 5 -4 10 3 6 8 10 11
10 2 0 4 -4 4 -10z m4770 -56 c0 -17 -22 -14 -28 4 -2 7 3 12 12 12 9 0 16 -7
16 -16z m-8810 -163 c0 -22 -16 -36 -24 -22 -8 12 3 41 15 41 5 0 9 -9 9 -19z
m8060 -161 c0 -5 -4 -10 -10 -10 -5 0 -10 5 -10 10 0 6 5 10 10 10 6 0 10 -4
10 -10z m-50 -40 c0 -5 -2 -10 -4 -10 -3 0 -8 5 -11 10 -3 6 -1 10 4 10 6 0
11 -4 11 -10z m420 -41 c0 -6 -4 -7 -10 -4 -5 3 -10 11 -10 16 0 6 5 7 10 4 6
-3 10 -11 10 -16z m-302 -171 c-6 -16 -36 -34 -44 -26 -8 9 17 37 34 38 8 0
12 -5 10 -12z m125 -54 c6 -7 -14 -44 -24 -44 -10 0 -20 30 -13 41 6 10 28 12
37 3z m-835 -36 c-6 -18 -28 -21 -28 -4 0 9 7 16 16 16 9 0 14 -5 12 -12z
m-5528 -8 c0 -5 -2 -10 -4 -10 -3 0 -8 5 -11 10 -3 6 -1 10 4 10 6 0 11 -4 11
-10z m5350 -29 c0 -6 -4 -13 -10 -16 -5 -3 -10 1 -10 9 0 9 5 16 10 16 6 0 10
-4 10 -9z m110 -66 c0 -8 -6 -15 -14 -15 -18 0 -39 27 -31 40 9 14 45 -6 45
-25z m115 -35 c3 -6 -1 -13 -10 -16 -19 -8 -30 0 -20 15 8 14 22 14 30 1z
m-3645 -61 c0 -6 7 -17 15 -26 9 -8 14 -18 11 -21 -8 -7 -55 41 -50 50 7 12
24 10 24 -3z m-1887 -73 c6 -16 -2 -28 -14 -20 -12 7 -11 34 0 34 5 0 11 -6
14 -14z m3861 -111 c27 -8 63 -15 80 -15 17 0 40 -7 50 -15 11 -8 29 -15 41
-15 11 0 29 -6 40 -14 11 -7 37 -16 57 -20 31 -6 58 -28 149 -119 60 -61 124
-136 140 -164 17 -29 40 -58 51 -64 14 -8 18 -17 14 -34 -5 -18 -1 -27 14 -35
17 -9 21 -21 20 -58 0 -26 4 -74 10 -107 6 -33 10 -72 10 -87 0 -16 5 -28 11
-28 7 0 8 -11 4 -31 -5 -21 -3 -34 6 -39 10 -7 10 -11 0 -24 -13 -15 -11 -54
4 -89 6 -13 4 -16 -9 -11 -17 7 -19 1 -16 -56 2 -61 -57 -354 -81 -402 -5 -10
-9 -24 -9 -32 0 -7 -19 -39 -42 -69 -24 -31 -63 -86 -88 -123 -61 -90 -219
-244 -252 -244 -9 0 -20 -5 -24 -11 -8 -14 -124 -68 -164 -75 -17 -4 -33 -11
-36 -15 -3 -5 -22 -6 -43 -3 -22 4 -48 1 -60 -6 -19 -9 -26 -9 -42 6 -15 13
-24 15 -46 6 -35 -14 -109 -9 -146 8 -20 10 -36 11 -61 3 -27 -8 -39 -8 -55 3
-10 8 -30 14 -43 13 -12 0 -42 4 -65 9 -24 5 -54 7 -67 5 -13 -3 -27 0 -30 6
-4 6 -15 11 -24 12 -9 0 -37 16 -62 35 -25 18 -54 38 -65 43 -21 9 -41 29 -60
60 -42 69 -59 91 -71 91 -8 0 -14 10 -14 23 0 28 -24 80 -45 97 -8 7 -15 23
-15 37 0 13 -4 32 -9 41 -5 9 -11 31 -14 47 -3 17 -11 46 -17 67 -12 41 -17
239 -7 308 3 25 9 74 13 110 3 36 12 79 19 95 19 47 35 100 35 116 0 8 16 39
35 69 19 30 35 63 35 73 0 15 24 57 90 152 23 33 40 48 107 94 34 23 68 55 76
70 13 26 12 31 -9 58 l-23 29 50 40 c27 21 49 41 49 45 0 4 22 9 48 11 30 3
63 15 87 31 22 15 52 27 68 27 15 0 46 12 69 26 23 15 61 28 87 31 39 3 151
16 186 21 6 1 32 -5 59 -13z m-4246 -36 c-2 -6 -8 -10 -13 -10 -5 0 -11 4 -13
10 -2 6 4 11 13 11 9 0 15 -5 13 -11z m-2115 -54 c1 -5 -6 -11 -15 -13 -11 -2
-18 3 -18 13 0 17 30 18 33 0z m7789 -30 c42 -2 87 -7 100 -11 13 -4 33 -7 46
-5 13 1 29 -2 35 -7 7 -6 38 -20 70 -32 31 -12 57 -25 57 -30 0 -4 12 -11 26
-14 15 -4 46 -26 70 -49 23 -23 61 -59 83 -81 22 -21 43 -47 46 -57 4 -11 10
-19 14 -19 4 0 14 -18 21 -40 7 -22 21 -47 32 -56 10 -10 18 -23 18 -31 0 -7
5 -23 12 -36 23 -46 28 -57 37 -94 5 -21 14 -51 19 -68 20 -60 34 -121 33
-145 0 -14 -3 -59 -5 -100 -2 -41 0 -80 6 -87 10 -12 1 -80 -12 -88 -5 -3 -6
-23 -3 -44 3 -22 -2 -68 -10 -103 -9 -35 -24 -94 -32 -131 -19 -82 -109 -274
-159 -338 -19 -26 -60 -63 -91 -84 -31 -20 -59 -43 -62 -51 -3 -8 -15 -14 -27
-14 -12 0 -29 -9 -39 -20 -9 -11 -26 -20 -36 -20 -11 0 -22 -4 -26 -9 -3 -5
-28 -17 -56 -26 -28 -10 -53 -23 -55 -30 -3 -7 -29 -16 -57 -19 -29 -4 -60
-14 -69 -23 -11 -10 -24 -13 -35 -8 -33 14 -108 16 -131 4 -17 -10 -36 -10
-86 -1 -35 7 -73 12 -86 12 -12 0 -33 9 -47 20 -17 13 -33 17 -54 13 -17 -3
-38 0 -51 9 -13 8 -35 18 -49 21 -14 4 -44 27 -68 52 -23 25 -48 45 -54 45
-20 0 -117 109 -117 131 0 10 9 27 20 36 11 10 20 25 20 35 0 9 6 21 14 25 19
11 58 82 61 112 1 14 8 27 14 29 6 2 11 11 11 21 0 9 8 35 19 57 62 131 99
428 77 614 -2 19 -6 58 -9 85 -10 110 -21 171 -33 190 -8 11 -14 30 -14 43 0
12 -11 49 -25 82 -14 33 -25 70 -25 83 0 13 -9 32 -20 42 -11 10 -19 22 -18
26 6 13 133 105 173 124 22 11 64 20 94 22 32 1 61 9 71 18 12 11 26 14 44 9
15 -3 32 -1 41 6 8 6 22 9 32 6 10 -3 23 -2 30 2 6 4 40 5 75 3 34 -2 98 -5
140 -6z m-7762 -212 c0 -5 -5 -15 -10 -23 -7 -12 -12 -12 -22 -2 -10 10 -10
15 2 22 18 12 30 13 30 3z m75 -33 c3 -5 -3 -10 -15 -10 -12 0 -18 5 -15 10 3
6 10 10 15 10 5 0 12 -4 15 -10z m-311 -148 c-15 -32 -25 -38 -37 -25 -4 3 5
19 21 34 15 15 28 26 30 25 1 -2 -5 -17 -14 -34z m16 -256 c0 -3 -4 -8 -10
-11 -5 -3 -10 -1 -10 4 0 6 5 11 10 11 6 0 10 -2 10 -4z m-45 -163 c-5 -10 -8
-26 -9 -35 0 -15 -2 -16 -14 -4 -17 17 -7 56 15 56 11 0 13 -5 8 -17z m275
-63 c0 -21 -21 -32 -41 -20 -11 7 -10 12 5 29 21 23 36 19 36 -9z m50 10 c0
-5 -4 -10 -10 -10 -5 0 -10 5 -10 10 0 6 5 10 10 10 6 0 10 -4 10 -10z m-50
-85 c0 -8 -9 -15 -20 -15 -20 0 -26 11 -13 23 12 13 33 7 33 -8z m-290 -227
c0 -28 -8 -22 -25 18 -20 48 -19 52 5 24 11 -13 20 -31 20 -42z m770 -52 c0
-46 -15 -70 -26 -42 -8 21 4 86 16 86 6 0 10 -20 10 -44z m2150 -27 c0 -11 -4
-18 -10 -14 -5 3 -7 12 -3 20 7 21 13 19 13 -6z m-2110 -70 c0 -5 -6 -9 -13
-9 -7 0 -19 -6 -25 -12 -14 -14 -82 -11 -97 4 -7 7 -3 9 13 5 14 -3 25 0 28 7
6 15 94 19 94 5z m65 -19 c3 -5 1 -10 -4 -10 -6 0 -11 5 -11 10 0 6 2 10 4 10
3 0 8 -4 11 -10z m-753 -32 c-7 -7 -12 -8 -12 -2 0 14 12 26 19 19 2 -3 -1
-11 -7 -17z m278 -59 c0 -11 -7 -19 -16 -19 -11 0 -14 5 -10 16 3 9 6 20 6 25
0 6 5 7 10 4 6 -3 10 -15 10 -26z m4972 -44 c5 -22 -16 -55 -35 -55 -6 0 -7
61 0 73 9 16 31 6 35 -18z m-4502 -35 c0 -11 -7 -20 -15 -20 -8 0 -15 9 -15
20 0 11 7 20 15 20 8 0 15 -9 15 -20z m-60 -25 c0 -8 -7 -15 -15 -15 -16 0
-20 12 -8 23 11 12 23 8 23 -8z m3160 -49 c0 -20 -19 -31 -32 -18 -6 6 -7 15
-4 21 10 16 36 13 36 -3z m-3555 -36 c3 -5 -1 -10 -9 -10 -9 0 -16 5 -16 10 0
6 4 10 9 10 6 0 13 -4 16 -10z m3520 -29 c3 -5 1 -12 -5 -16 -5 -3 -10 1 -10
9 0 18 6 21 15 7z m-3169 -38 c-10 -10 -19 5 -10 18 6 11 8 11 12 0 2 -7 1
-15 -2 -18z m-398 -10 c-2 -11 -14 -19 -33 -21 -30 -4 -30 -4 -11 17 23 26 49
28 44 4z m519 1 c-3 -3 -12 -4 -19 -1 -8 3 -5 6 6 6 11 1 17 -2 13 -5z m89 -5
c10 -17 -13 -36 -27 -22 -12 12 -4 33 11 33 5 0 12 -5 16 -11z m-363 -22 c3
-8 1 -20 -4 -28 -6 -10 -9 -7 -9 14 0 29 5 35 13 14z m6331 -2 c-6 -16 -24
-21 -24 -7 0 11 11 22 21 22 5 0 6 -7 3 -15z m-6169 -35 c3 -5 -1 -10 -10 -10
-9 0 -13 5 -10 10 3 6 8 10 10 10 2 0 7 -4 10 -10z m-405 -34 c0 -17 -14 -29
-23 -20 -8 8 3 34 14 34 5 0 9 -6 9 -14z m470 -12 c0 -8 -4 -12 -10 -9 -5 3
-10 10 -10 16 0 5 5 9 10 9 6 0 10 -7 10 -16z m5049 -158 c16 -20 3 -46 -24
-46 -25 0 -34 15 -27 43 5 20 35 23 51 3z m-4881 -14 c6 -18 -15 -14 -22 4 -4
10 -1 14 6 12 6 -2 14 -10 16 -16z m-386 -24 c-6 -6 -15 -8 -19 -4 -4 4 -1 11
7 16 19 12 27 3 12 -12z m458 -8 c0 -5 -4 -10 -9 -10 -6 0 -13 5 -16 10 -3 6
1 10 9 10 9 0 16 -4 16 -10z m-159 -70 c3 -19 1 -43 -4 -53 -6 -14 -2 -29 17
-57 15 -22 23 -46 19 -58 -2 -11 3 -37 13 -58 29 -60 14 -123 -21 -94 -11 9
-15 27 -14 59 1 27 -5 59 -15 78 -10 20 -14 43 -10 57 4 17 -1 31 -16 46 -17
17 -21 29 -16 53 4 18 7 40 7 50 0 34 34 14 40 -23z m4949 20 c0 -5 -4 -10
-10 -10 -5 0 -10 5 -10 10 0 6 5 10 10 10 6 0 10 -4 10 -10z m-5322 -36 c12
-21 3 -66 -12 -61 -6 2 -10 14 -9 26 2 12 -4 24 -12 27 -21 9 -18 24 5 24 10
0 23 -7 28 -16z m-151 -36 c-3 -8 -6 -5 -6 6 -1 11 2 17 5 13 3 -3 4 -12 1
-19z m442 3 c20 -20 33 -69 20 -77 -5 -3 -9 2 -9 10 0 9 -9 25 -20 36 -18 18
-28 50 -15 50 3 0 13 -8 24 -19z m7061 -41 c0 -14 -28 -19 -33 -5 -3 7 -3 15
0 18 7 7 33 -3 33 -13z m80 1 c0 -15 -28 -33 -46 -29 -17 3 -17 4 0 21 18 18
46 23 46 8z m-7540 -41 c0 -19 -6 -33 -16 -37 -19 -7 -34 13 -34 45 0 17 6 22
25 22 21 0 25 -5 25 -30z m8454 -50 c14 -14 -24 -25 -42 -13 -9 5 -18 15 -20
23 -4 10 3 11 24 6 16 -4 33 -11 38 -16z m-8564 6 c0 -3 -4 -8 -10 -11 -5 -3
-10 -1 -10 4 0 6 5 11 10 11 6 0 10 -2 10 -4z m230 -31 c7 -9 10 -18 7 -21
-10 -11 -37 5 -37 21 0 19 14 19 30 0z m277 -31 c-9 -9 -28 6 -21 18 4 6 10 6
17 -1 6 -6 8 -13 4 -17z m-157 -30 c0 -8 -4 -12 -10 -9 -5 3 -10 10 -10 16 0
5 5 9 10 9 6 0 10 -7 10 -16z m-241 -41 c19 -15 20 -21 9 -35 -12 -15 -16 -15
-47 -2 -33 14 -33 15 -16 34 22 24 27 25 54 3z m2841 -17 c0 -3 -4 -8 -10 -11
-5 -3 -10 -1 -10 4 0 6 5 11 10 11 6 0 10 -2 10 -4z m-2515 -76 c3 -5 -1 -10
-10 -10 -9 0 -13 5 -10 10 3 6 8 10 10 10 2 0 7 -4 10 -10z m1469 -102 c20
-40 8 -57 -30 -39 -19 8 -24 16 -19 29 4 9 8 23 8 30 1 23 26 12 41 -20z
m-2058 -35 c-10 -10 -19 5 -10 18 6 11 8 11 12 0 2 -7 1 -15 -2 -18z m8648
-11 c33 -18 34 -19 16 -41 -12 -17 -23 -21 -37 -17 -22 7 -42 44 -36 64 6 16
17 15 57 -6z m-6266 -14 c-4 -29 -38 -38 -38 -10 0 22 8 32 27 32 9 0 13 -8
11 -22z m4302 -157 c0 -23 -9 -31 -26 -24 -14 5 -19 34 -8 46 11 10 34 -5 34
-22z m2070 21 c0 -13 -12 -22 -22 -16 -10 6 -1 24 13 24 5 0 9 -4 9 -8z
m-1592 -50 c18 -18 19 -42 1 -42 -17 0 -47 33 -42 46 7 19 20 17 41 -4z m310
-21 c2 -18 -4 -43 -12 -56 -9 -14 -16 -32 -16 -41 0 -16 -35 -54 -50 -54 -13
0 -19 41 -10 64 4 12 15 28 24 35 9 7 16 22 16 33 0 28 19 60 33 55 7 -2 13
-18 15 -36z m-492 -35 c3 -8 13 -12 25 -9 20 6 24 -4 10 -26 -7 -11 -13 -10
-35 4 -14 10 -26 24 -26 31 0 18 19 18 26 0z m234 -16 c8 -16 8 -20 -3 -20
-18 0 -39 24 -30 33 11 12 22 8 33 -13z m1330 -76 c0 -8 -5 -12 -10 -9 -6 4
-8 11 -5 16 9 14 15 11 15 -7z m-1580 2 c0 -3 -4 -8 -10 -11 -5 -3 -10 -1 -10
4 0 6 5 11 10 11 6 0 10 -2 10 -4z m-60 -20 l32 -13 -23 -22 c-29 -27 -36 -26
-59 2 -13 16 -15 26 -8 35 13 15 18 15 58 -2z m770 -1 c0 -9 -6 -26 -14 -38
-14 -23 -11 -97 5 -97 5 0 9 -7 9 -15 0 -8 5 -15 11 -15 21 0 5 -43 -17 -45
-17 -1 -20 3 -16 18 4 16 1 19 -11 14 -20 -8 -22 4 -5 21 10 10 10 15 -2 22
-22 14 -27 12 -33 -10 -3 -11 -12 -20 -21 -20 -24 0 -20 46 6 83 13 17 21 41
20 52 -2 14 5 25 20 33 33 15 48 14 48 -3z m-305 -36 c4 -5 1 -24 -5 -40 -16
-37 -53 -37 -58 0 -4 23 -3 23 13 8 22 -22 37 -12 29 19 -6 24 9 34 21 13z
m150 -78 c3 -5 1 -12 -4 -15 -5 -3 -11 1 -15 9 -6 16 9 21 19 6z m-4138 -66
c3 -9 3 -18 0 -22 -11 -10 -57 7 -57 22 0 20 49 20 57 0z m3943 -10 c0 -1 -6
-14 -14 -29 -12 -25 -14 -25 -29 -8 -15 17 -15 19 0 34 12 13 43 15 43 3z
m307 -69 c-15 -31 -20 -27 -11 8 3 14 10 24 14 21 5 -3 3 -16 -3 -29z m-77
-27 c0 -5 -4 -9 -10 -9 -5 0 -10 7 -10 16 0 8 5 12 10 9 6 -3 10 -10 10 -16z
m35 11 c3 -5 2 -10 -4 -10 -5 0 -13 5 -16 10 -3 6 -2 10 4 10 5 0 13 -4 16
-10z m-345 -31 c0 -6 -4 -7 -10 -4 -5 3 -10 11 -10 16 0 6 5 7 10 4 6 -3 10
-11 10 -16z m2000 11 c0 -5 -4 -10 -10 -10 -5 0 -10 5 -10 10 0 6 5 10 10 10
6 0 10 -4 10 -10z m-1600 -19 c0 -23 -16 -36 -25 -21 -9 14 1 40 15 40 5 0 10
-9 10 -19z m-433 -78 c16 -18 23 -21 23 -11 0 19 27 31 36 17 3 -6 -2 -19 -12
-30 -22 -22 -64 -15 -64 10 0 9 -5 22 -12 29 -7 7 -8 12 -3 12 5 0 20 -12 32
-27z m-4967 7 c0 -5 -4 -10 -10 -10 -5 0 -10 5 -10 10 0 6 5 10 10 10 6 0 10
-4 10 -10z m345 -60 c3 -5 -1 -10 -9 -10 -8 0 -18 5 -21 10 -3 6 1 10 9 10 8
0 18 -4 21 -10z m66 -50 c5 0 9 -5 9 -11 0 -15 -42 13 -49 32 -3 9 1 8 13 -4
10 -9 22 -17 27 -17z m-331 10 c0 -5 -9 -10 -20 -10 -11 0 -20 5 -20 10 0 6 9
10 20 10 11 0 20 -4 20 -10z m5091 -73 c-13 -13 -15 1 -4 30 7 17 8 17 11 -1
2 -10 -1 -23 -7 -29z m-5101 19 c0 -11 -19 -15 -25 -6 -3 5 1 10 9 10 9 0 16
-2 16 -4z m219 -52 c6 -14 11 -31 11 -39 0 -8 9 -15 21 -15 17 0 20 -5 17 -32
-5 -52 -34 -49 -43 4 -4 23 -18 57 -31 74 -13 17 -21 33 -18 37 11 10 31 -3
43 -29z m-2229 -59 c7 -9 8 -15 2 -15 -5 0 -12 7 -16 15 -3 8 -4 15 -2 15 2 0
9 -7 16 -15z m4424 -16 c-10 -11 -18 -29 -19 -40 -1 -11 -8 -25 -15 -32 -19
-18 -5 50 15 69 8 9 15 20 15 25 0 6 5 7 11 4 7 -5 4 -14 -7 -26z m4716 16 c0
-8 -4 -15 -9 -15 -13 0 -22 16 -14 24 11 11 23 6 23 -9z m-9150 -45 c0 -3 -5
-12 -10 -20 -9 -13 -11 -13 -20 0 -14 22 -12 26 10 26 11 0 20 -3 20 -6z
m4364 -60 c35 -13 35 -61 0 -112 -28 -40 -32 -42 -58 -32 -18 7 -22 59 -5 69
13 9 33 56 30 73 -2 15 0 15 33 2z m3751 -58 c7 -23 11 -42 9 -42 -2 0 1 -12
6 -26 13 -33 -5 -61 -26 -43 -8 6 -14 17 -14 24 0 6 -9 20 -19 29 -32 29 -36
68 -10 89 30 24 40 18 54 -31z m-8120 28 c3 -5 -1 -10 -9 -10 -9 0 -16 5 -16
10 0 6 4 10 9 10 6 0 13 -4 16 -10z m7110 -51 c-4 -5 -17 -9 -31 -9 -18 0 -24
5 -24 23 -1 20 -2 21 -14 5 -7 -10 -18 -18 -25 -18 -21 0 -11 18 21 37 32 18
32 18 55 -5 13 -13 21 -28 18 -33z m-1785 -14 c-28 -34 -33 9 -6 44 9 12 12
10 14 -8 2 -12 -2 -29 -8 -36z m-2269 10 c0 -5 -9 -11 -21 -13 -20 -3 -27 8
-13 22 10 9 34 3 34 -9z m-2531 -55 c0 -5 -5 -10 -11 -10 -5 0 -7 5 -4 10 3 6
8 10 11 10 2 0 4 -4 4 -10z m578 -41 c2 -23 2 -23 -13 -5 -18 24 -20 39 -2 34
6 -3 13 -15 15 -29z m3208 -17 c-17 -17 -36 -8 -36 17 0 27 10 31 31 13 16
-14 17 -18 5 -30z m2710 37 c7 -12 -12 -29 -34 -29 -10 0 -10 5 -2 20 12 22
25 26 36 9z m-2761 -49 c-3 -5 -12 -10 -18 -10 -7 0 -6 4 3 10 19 12 23 12 15
0z m1615 -59 c0 -6 -4 -13 -10 -16 -5 -3 -10 1 -10 9 0 9 5 16 10 16 6 0 10
-4 10 -9z m-5860 -31 c-20 -20 -50 -21 -50 -2 0 7 61 30 68 26 2 -1 -6 -12
-18 -24z m517 -14 c-4 -9 -11 -16 -17 -16 -15 0 -24 26 -16 47 6 15 8 15 23 1
9 -9 13 -24 10 -32z m3609 -54 c-15 -15 -16 -14 -16 9 0 33 11 44 23 23 6 -11
4 -21 -7 -32z m114 25 c0 -8 -11 -24 -25 -37 -20 -19 -27 -21 -40 -10 -19 16
-20 50 0 50 8 0 15 -5 15 -12 0 -8 6 -6 17 5 21 20 33 22 33 4z m3430 -13 c0
-16 -16 -19 -25 -4 -8 13 4 32 16 25 5 -4 9 -13 9 -21z m-5162 -16 c-6 -18
-28 -21 -28 -4 0 9 7 16 16 16 9 0 14 -5 12 -12z m302 -20 c0 -6 -7 -7 -16 -4
-9 3 -18 6 -20 6 -3 0 -3 4 1 10 7 11 35 2 35 -12z m68 6 c32 -9 27 -49 -7
-50 -13 -1 -27 -7 -32 -15 -13 -22 -22 13 -10 44 11 29 14 30 49 21z m-2808
-19 c10 -13 9 -15 -8 -15 -12 0 -25 -8 -31 -17 -5 -10 -13 -14 -17 -10 -4 4
-3 12 3 18 6 6 9 18 6 25 -7 19 31 18 47 -1z m7664 -12 c3 -8 3 -19 0 -25 -7
-10 -33 20 -34 39 0 16 27 5 34 -14z m-7326 -27 c2 -25 0 -36 -7 -31 -6 3 -11
15 -11 25 0 10 -5 22 -10 25 -13 8 -2 27 13 22 7 -2 13 -21 15 -41z m282 -25
c0 -27 -15 -41 -41 -41 -30 0 -38 17 -17 38 14 14 58 16 58 3z m-730 -49 c-14
-5 -30 16 -30 38 1 10 7 7 21 -10 14 -17 17 -26 9 -28z m4270 20 c0 -11 -9
-27 -20 -37 -23 -21 -24 -19 -9 24 12 34 29 42 29 13z m-130 -48 c0 -8 -5 -12
-10 -9 -6 4 -8 11 -5 16 9 14 15 11 15 -7z m-4130 -11 c11 -10 20 -23 20 -30
0 -18 19 -16 26 2 4 8 13 15 21 15 10 0 13 -6 8 -17 -4 -10 -11 -44 -17 -75
-10 -58 -28 -79 -28 -33 0 14 -8 29 -21 35 -16 9 -19 18 -15 36 6 22 4 24 -17
19 -31 -8 -41 15 -21 44 18 25 19 25 44 4z m520 -3 c0 -5 -7 -10 -16 -10 -8 0
-12 5 -9 10 3 6 10 10 16 10 5 0 9 -4 9 -10z m100 6 c0 -3 -4 -8 -10 -11 -5
-3 -10 -1 -10 4 0 6 5 11 10 11 6 0 10 -2 10 -4z m3540 -45 c0 -19 -43 -55
-54 -44 -3 4 -6 17 -6 29 0 21 4 24 53 33 4 0 7 -7 7 -18z m74 -5 c-3 -9 -10
-13 -16 -10 -5 3 -4 12 3 20 15 18 22 13 13 -10z m-99 -74 c0 -18 -20 -15 -23
4 -3 10 1 15 10 12 7 -3 13 -10 13 -16z m3503 -10 c2 -7 -2 -10 -12 -6 -9 3
-16 11 -16 16 0 13 23 5 28 -10z m-798 -6 c0 -3 -4 -8 -10 -11 -5 -3 -10 -1
-10 4 0 6 5 11 10 11 6 0 10 -2 10 -4z m-2722 -58 c2 -11 -6 -18 -27 -23 -17
-4 -31 -10 -31 -15 0 -5 -7 -16 -16 -25 -14 -14 -14 -18 0 -39 16 -26 12 -38
-10 -29 -8 3 -14 0 -14 -6 0 -6 -4 -11 -10 -11 -20 0 -11 70 13 93 12 12 31
35 40 50 20 30 50 33 55 5z m72 7 c0 -15 -43 -12 -48 3 -3 10 4 13 22 10 15
-2 26 -7 26 -13z m2646 -10 c3 -8 -1 -22 -10 -30 -9 -9 -16 -21 -16 -26 0 -5
-7 -9 -15 -9 -8 0 -15 7 -15 15 0 9 7 18 15 21 8 4 15 15 15 25 0 22 18 25 26
4z m-6446 -45 c0 -11 -4 -20 -9 -20 -11 0 -22 26 -14 34 12 12 23 5 23 -14z
m117 -12 c-3 -7 -5 -2 -5 12 0 14 2 19 5 13 2 -7 2 -19 0 -25z m828 -28 c3 -5
1 -10 -4 -10 -6 0 -11 5 -11 10 0 6 2 10 4 10 3 0 8 -4 11 -10z m-7 -72 c-2
-18 -7 -33 -13 -33 -5 0 -11 15 -13 33 -3 24 1 32 13 32 12 0 16 -8 13 -32z
m-1233 -17 c0 -8 -8 -19 -17 -25 -22 -13 -44 5 -34 29 7 20 51 16 51 -4z
m6637 -63 c-6 -6 -15 -8 -19 -4 -4 4 -1 11 7 16 19 12 27 3 12 -12z m-6182 8
c0 -11 -19 -15 -25 -6 -3 5 1 10 9 10 9 0 16 -2 16 -4z m-481 -18 c8 3 5 -6
-7 -19 -20 -21 -24 -22 -38 -7 -20 20 -10 42 14 29 9 -4 23 -6 31 -3z m2311
-3 c-7 -8 -16 -12 -21 -9 -13 8 -1 24 18 24 13 0 13 -3 3 -15z m1575 -5 c3 -5
-1 -10 -9 -10 -8 0 -18 5 -21 10 -3 6 1 10 9 10 8 0 18 -4 21 -10z m-127 -73
c2 -10 -3 -17 -12 -17 -10 0 -16 9 -16 21 0 24 23 21 28 -4z m-1533 -47 c3 -5
-1 -10 -9 -10 -9 0 -16 5 -16 10 0 6 4 10 9 10 6 0 13 -4 16 -10z m-5 -45 c0
-18 -7 -26 -24 -31 -14 -3 -30 -3 -35 1 -18 11 -12 35 8 35 11 0 23 5 26 10
11 18 25 10 25 -15z m2701 -16 c8 -17 8 -23 -1 -29 -17 -10 -40 -78 -33 -96 5
-14 -26 -94 -38 -94 -14 0 -17 28 -4 53 7 13 15 40 18 58 5 35 37 129 43 129
2 0 8 -10 15 -21z m-4397 -47 c-1 -7 -2 -23 -2 -36 -2 -22 -4 -23 -27 -13 -29
14 -31 24 -7 48 18 19 38 19 36 1z m-164 -22 c0 -5 -4 -10 -10 -10 -5 0 -10 5
-10 10 0 6 5 10 10 10 6 0 10 -4 10 -10z m-305 -60 c-3 -5 -13 -10 -21 -10 -8
0 -12 5 -9 10 3 6 13 10 21 10 8 0 12 -4 9 -10z m315 -50 c0 -5 -7 -10 -15
-10 -8 0 -15 5 -15 10 0 6 7 10 15 10 8 0 15 -4 15 -10z m1871 -73 c-8 -8 -11
-7 -11 4 0 20 13 34 18 19 3 -7 -1 -17 -7 -23z m-2201 -3 c0 -8 -10 -14 -25
-14 -29 0 -30 3 -9 24 17 18 34 13 34 -10z m2090 12 c0 -8 -4 -17 -9 -21 -12
-7 -24 12 -16 25 9 15 25 12 25 -4z m3560 -176 c0 -5 -2 -10 -4 -10 -3 0 -8 5
-11 10 -3 6 -1 10 4 10 6 0 11 -4 11 -10z m-5642 -21 c-2 -6 -8 -10 -13 -10
-5 0 -11 4 -13 10 -2 6 4 11 13 11 9 0 15 -5 13 -11z m2512 -39 c0 -5 -4 -10
-10 -10 -5 0 -10 5 -10 10 0 6 5 10 10 10 6 0 10 -4 10 -10z m3160 -22 l0 -33
-19 25 c-21 26 -19 40 5 40 9 0 14 -11 14 -32z m50 12 c0 -11 -7 -20 -15 -20
-18 0 -19 12 -3 28 16 16 18 15 18 -8z m-3220 -50 c12 -8 12 -10 -3 -16 -20
-7 -47 1 -47 16 0 12 30 13 50 0z m3150 -56 c0 -9 -9 -18 -20 -21 -22 -6 -26
-18 -10 -28 13 -8 13 -25 0 -25 -6 0 -15 11 -20 25 -5 14 -14 25 -20 25 -18 0
-11 15 13 26 33 17 57 16 57 -2z m-3695 -94 c-6 -9 -9 -9 -16 1 -10 17 0 34
13 21 6 -6 7 -16 3 -22z"/>
<path d="M6738 4813 c-27 -4 -67 -23 -124 -57 -54 -34 -119 -148 -129 -228 -6
-48 -4 -64 14 -98 11 -22 21 -48 21 -56 0 -28 71 -103 123 -129 68 -35 147
-54 177 -43 13 5 31 6 41 3 10 -3 34 1 54 9 43 18 152 109 159 134 15 47 24
157 15 168 -6 7 -9 21 -8 31 2 10 -7 34 -19 53 -12 19 -22 40 -22 46 0 23 -91
113 -125 124 -19 6 -35 16 -35 22 0 6 -7 8 -15 4 -8 -3 -33 1 -56 9 -23 8 -42
14 -43 14 0 -1 -13 -4 -28 -6z"/>
<path d="M8379 4569 c-29 -16 -58 -29 -65 -29 -7 0 -19 -6 -26 -13 -7 -7 -26
-20 -41 -30 -15 -10 -31 -26 -35 -35 -3 -9 -18 -35 -32 -57 -51 -79 -60 -146
-28 -209 6 -11 14 -28 18 -36 4 -8 22 -20 41 -26 19 -6 41 -23 49 -38 8 -14
24 -29 35 -31 77 -21 103 -28 121 -37 22 -10 111 -3 149 13 38 15 93 74 129
140 39 70 43 102 30 228 l-7 61 -53 31 c-29 16 -64 43 -76 59 -20 25 -31 29
-90 33 -59 4 -72 1 -119 -24z"/>
</g>
</svg>
